<?xml version="1.0" encoding="utf-8"?>
<!-- Generator: Adobe Illustrator 18.1.1, SVG Export Plug-In . SVG Version: 6.00 Build 0)  -->
<svg version="1.1" id="Layer_1" xmlns="http://www.w3.org/2000/svg" xmlns:xlink="http://www.w3.org/1999/xlink" x="0px" y="0px"
	 viewBox="30.6 640.2 612 167.9" enable-background="new 30.6 640.2 612 167.9" xml:space="preserve">
<g>
	<polygon fill="#FFFFFF" points="171.7,640.2 171.7,757.7 196.9,757.7 196.9,640.2 	"/>
	<polygon fill="#FFFFFF" points="465.5,640.2 465.6,757.7 491.8,757.7 491.8,640.2 	"/>
	<path fill="#FFFFFF" d="M130.7,757.7c-2.6-12.1-12.7-44.2-73.8-37.3v37.3H30.6V640.2c0,0,78.2,0,93.5,0s36.9,25.2,39.6,38.1
		c-3.2,15.5-16.9,31.9-33.2,36.7c10.8,8,26.3,23.7,28.7,42.7H130.7z M56.9,666.1l0.1,27h61.2c5.4-0.2,15.3-3.9,17.1-14.3
		c-5.7-9.9-15-12.7-22.9-12.7H56.9z"/>
	<path fill="#FFFFFF" d="M380.2,640.2h68.6v26.1h-64.4c-16.1,0-31.9,26.1-36.5,33.4c3.4,6.2,18,33.2,34.1,33.2H424l-0.1-21
		l-22.7-0.1V687H449v70.5h-71.1c-23.9-1-38.6-23.4-43.5-29.6c-17.3,19.8-18.6,25.9-43.8,29.6H214V640.2h80.3
		c24.2,1.3,35.6,23.9,40,30.8C354.3,639.9,380.2,640.2,380.2,640.2z M289.8,732.9c23.1-7.8,25-21.1,30.6-33.2
		c-11.6-26.1-26.3-31.1-35.4-33.8c-6.2-0.2-45.7,0-45.7,0v67L289.8,732.9L289.8,732.9z"/>
	<path fill="#FFFFFF" d="M630.9,751.3c0-3,2.3-5.3,5.2-5.3c2.9,0,5.2,2.3,5.2,5.3c0,3.1-2.3,5.4-5.2,5.4
		C633.2,756.6,630.9,754.4,630.9,751.3z M636.1,757.7c3.5,0,6.5-2.6,6.5-6.4c0-3.6-3-6.4-6.5-6.4c-3.5,0-6.5,2.6-6.5,6.4
		C629.7,754.9,632.7,757.7,636.1,757.7z M634.8,751.7h1.3l2,3.2h1.2l-2.1-3.3c1.1-0.1,1.9-0.7,1.9-2c0-1.4-0.9-2.1-2.6-2.1h-2.8v7.4
		h1.1L634.8,751.7L634.8,751.7z M634.8,750.8v-2.3h1.5c0.8,0,1.7,0.2,1.7,1.1c0,1.1-0.9,1.2-1.8,1.2H634.8z"/>
	<path fill="#FFFFFF" d="M508.3,640.2h77.6c34.3,4.3,46.1,37.3,56.7,59.5c-19.5,57.6-52.6,57.9-66,57.9h-68.2V640.2z M533.1,666.1
		v66.8l50.4,0.1c15.8-3.2,26.1-15.3,31.1-33.4c-5.2-11.3-16.2-31.1-34.1-33.3C557.8,666.1,533.1,666.1,533.1,666.1z"/>
</g>
<rect x="30.6" y="782.8" fill="#F5822B" width="611.9" height="25.2"/>
</svg>
